<svg version="1.1" id="Layer_1" xmlns="http://www.w3.org/2000/svg" xmlns:xlink="http://www.w3.org/1999/xlink" x="0px" y="0px"
	 width="100%" viewBox="0 0 1024 432" enable-background="new 0 0 1024 432" xml:space="preserve">
<path fill="#1e5a7d" opacity="1.000000" stroke="none" 
	d="
M346.998444,100.996002 
	C373.560944,126.730141 389.465485,157.746872 393.990112,193.934082 
	C400.136993,243.095810 386.312988,286.545227 352.916626,323.268311 
	C327.631195,351.072479 295.636566,366.441772 258.446106,370.012543 
	C228.876068,372.851685 200.421677,367.517151 173.749664,353.953461 
	C173.397049,353.774170 173.239059,353.212128 172.682129,352.354065 
	C178.043503,351.261688 183.130722,351.808777 188.156006,351.710846 
	C205.895111,351.365204 219.972580,344.001129 230.166168,329.562378 
	C235.112610,322.555969 238.066055,314.574493 239.655243,306.125824 
	C240.456985,301.863586 241.511765,297.700134 243.478455,293.782349 
	C249.012878,282.757507 257.934357,277.038696 270.226807,276.909180 
	C284.889404,276.754669 299.556183,276.967773 314.217957,276.776001 
	C318.138977,276.724731 319.546234,277.983215 319.411682,281.927490 
	C319.173248,288.918182 319.360291,295.923096 319.345642,302.921997 
	C319.341034,305.119843 319.187897,307.500488 321.472198,308.655731 
	C323.901459,309.884125 325.048859,307.474152 326.391632,306.233063 
	C339.361023,294.245667 352.182373,282.097046 365.230621,270.196899 
	C368.589142,267.133881 368.850433,264.942383 365.478149,261.726990 
	C352.456512,249.311188 339.613647,236.707870 326.694946,224.183990 
	C325.351196,222.881317 323.846283,221.621811 321.839050,222.303879 
	C319.489044,223.102402 319.423340,225.334564 319.405945,227.307083 
	C319.334229,235.441162 319.375916,243.576248 319.375916,251.240784 
	C317.532440,252.838364 315.972870,252.385040 314.517853,252.386322 
	C300.686646,252.398560 286.824738,252.966705 273.030518,252.246704 
	C242.972748,250.677841 224.065918,272.225800 218.168976,294.717224 
	C215.726288,304.033783 212.587311,312.777039 205.391693,319.648468 
	C198.909348,325.838806 191.105850,328.958923 182.412064,329.210754 
	C168.758667,329.606293 155.085205,329.261627 141.422104,329.406403 
	C138.376724,329.438690 136.492096,328.002716 134.616333,325.970520 
	C111.032669,300.419678 96.438499,270.678833 91.451813,236.087143 
	C86.739433,203.398163 91.393784,172.156204 106.468781,143.059494 
	C129.842972,97.944244 166.850769,70.001884 217.236008,61.695389 
	C266.480072,53.577026 309.720551,67.347626 346.998444,100.996002 
M259.332001,162.357986 
	C259.673370,165.888519 257.589874,166.429230 254.679428,166.406509 
	C244.021652,166.323364 233.362869,166.358276 222.704483,166.372543 
	C215.723297,166.381897 215.711609,166.400269 215.712097,159.632507 
	C215.713058,146.642624 215.725174,133.652740 215.741592,120.662872 
	C215.744553,118.311401 215.640457,116.054413 214.031586,114.065323 
	C211.189835,110.551941 207.538895,109.196892 203.377243,110.667419 
	C198.945923,112.233223 196.348190,115.560051 196.349686,120.525215 
	C196.353378,132.848999 196.364304,145.172836 196.337448,157.496567 
	C196.314606,167.975555 196.822723,166.190186 187.549561,166.394363 
	C178.180038,166.600662 172.370529,172.060165 172.422653,181.311508 
	C172.495697,194.275696 171.581207,207.259903 173.313705,220.205032 
	C175.799057,238.775436 184.393753,253.390305 200.392593,263.488342 
	C204.372345,266.000275 206.830338,266.172241 210.092178,261.649475 
	C221.366394,246.016968 237.114212,237.422928 256.111603,234.622665 
	C268.710175,232.765610 281.378876,233.955582 294.011902,233.794876 
	C298.250763,233.740952 300.082001,232.720917 300.867218,228.179428 
	C303.690247,211.852127 303.844940,195.429214 303.633575,178.963470 
	C303.574402,174.355118 301.044159,171.164581 297.350586,168.813782 
	C293.677124,166.475784 289.524170,165.985535 285.321106,166.454025 
	C280.360352,167.006989 278.597809,165.213715 278.735443,160.070358 
	C279.082886,147.089386 278.890961,134.093933 278.910645,121.104294 
	C278.914703,118.426743 278.888275,115.805374 276.871887,113.616325 
	C273.820374,110.303581 270.090576,109.221703 265.999908,110.765244 
	C261.511749,112.458778 259.354950,116.079262 259.354218,120.916420 
	C259.352173,134.405975 259.347931,147.895523 259.332001,162.357986 
z"/>
<path fill="#1e5a7d" opacity="1.000000" stroke="none" 
	d="
M932.572510,152.571182 
	C934.843018,160.981491 937.004578,168.994568 939.389954,177.837524 
	C941.701843,173.524796 942.260803,169.506302 943.335022,165.693817 
	C945.588684,157.695236 947.703857,149.656128 949.758484,141.603699 
	C950.555603,138.479584 951.938843,136.682373 955.569458,136.923370 
	C959.851746,137.207626 964.167358,136.990051 968.026306,136.990051 
	C969.527649,138.823151 968.636353,140.099426 968.282410,141.289368 
	C962.689331,160.094940 956.979126,178.866013 951.468140,197.695435 
	C950.473389,201.094131 948.929016,202.435242 945.223267,202.428375 
	C930.534180,202.401108 930.583557,202.521286 926.708069,188.160263 
	C924.734558,180.847488 922.545532,173.592896 919.227295,166.277176 
	C916.952026,173.992859 914.553894,181.674896 912.429138,189.431793 
	C908.894287,202.336243 908.963684,202.153915 895.582825,202.449081 
	C890.969055,202.550858 888.876343,201.224899 887.625488,196.631805 
	C882.733887,178.670074 877.400757,160.828690 872.249451,142.937485 
	C871.798157,141.370255 871.475586,139.765945 870.963257,137.639084 
	C876.633545,136.395523 882.073181,136.845520 887.436829,137.212463 
	C889.864746,137.378555 889.844910,140.119263 890.327332,141.946655 
	C893.040833,152.224564 895.647278,162.530685 898.306702,172.822922 
	C898.708557,174.378052 899.196838,175.910843 900.012695,178.719254 
	C903.506592,166.018555 906.869507,154.608444 909.710938,143.069962 
	C910.870789,138.359787 912.890991,136.551895 917.885315,136.827850 
	C930.962097,137.550415 927.644714,135.606796 931.289246,147.331833 
	C931.781250,148.914612 932.076904,150.558411 932.572510,152.571182 
z"/>
<path fill="#1e5a7d" opacity="1.000000" stroke="none" 
	d="
M680.136230,202.578262 
	C649.521362,208.963516 640.150391,185.856827 642.080322,165.117859 
	C642.524414,160.345657 643.631165,155.636414 645.742126,151.211563 
	C653.004822,135.988739 671.278015,130.874725 685.397827,140.173355 
	C686.343445,140.796097 687.089722,141.833939 688.571899,141.709702 
	C690.398315,139.621918 689.507751,137.009979 689.558594,134.645096 
	C689.705200,127.824944 689.683472,120.998436 689.575806,114.176819 
	C689.528015,111.144768 690.422974,109.756027 693.793518,109.603172 
	C707.354492,108.988205 707.345093,108.879318 707.349792,122.282463 
	C707.358337,146.913345 707.260254,171.545242 707.482666,196.174210 
	C707.525452,200.916260 706.231201,203.043488 701.345398,202.353378 
	C700.040283,202.169037 698.682129,202.259460 697.356018,202.344345 
	C693.673157,202.580109 690.087219,202.740280 690.550171,196.826782 
	C686.879944,199.078873 684.149109,201.621292 680.136230,202.578262 
M662.604614,180.744247 
	C665.851501,187.021698 671.343445,188.643906 677.766602,187.598267 
	C683.847534,186.608353 687.179443,182.469360 688.773071,176.722198 
	C690.140381,171.791061 690.088928,166.860962 688.708984,161.971405 
	C686.901306,155.566315 681.503296,151.390015 675.230774,151.381012 
	C668.469421,151.371307 663.538513,154.955612 661.492249,161.520493 
	C659.543945,167.771317 659.868103,173.961395 662.604614,180.744247 
z"/>
<path fill="#1e5a7d" opacity="1.000000" stroke="none" 
	d="
M507.601776,259.177734 
	C504.280945,273.624939 493.217194,281.621002 476.194580,282.149567 
	C472.697571,282.258148 469.191895,282.299622 465.696411,282.183899 
	C462.467163,282.076965 461.246552,283.486511 461.294922,286.670135 
	C461.408813,294.168243 461.184814,301.672913 461.376129,309.167816 
	C461.471130,312.888855 459.978180,314.263123 456.390594,314.156616 
	C439.989960,313.669586 442.722473,316.836243 442.616577,300.634674 
	C442.457581,276.302948 442.688293,251.968475 442.491211,227.637299 
	C442.455475,223.225067 443.351379,221.341873 448.183899,221.637787 
	C459.474640,222.329208 470.800232,221.158157 482.118286,222.462341 
	C502.117035,224.766815 510.513031,241.185989 507.601776,259.177734 
M461.339111,256.422699 
	C461.340668,258.086823 461.430389,259.756561 461.324158,261.413788 
	C461.139923,264.288544 462.153076,265.800507 465.284393,265.661987 
	C470.082672,265.449738 474.904419,266.020508 479.654175,264.670166 
	C485.500458,263.008118 488.522156,259.283569 488.668549,253.112747 
	C488.846039,245.633530 486.223206,241.417511 480.348480,239.444595 
	C475.144623,237.696960 469.803131,238.485535 464.510345,238.403000 
	C461.788208,238.360535 461.323425,240.242767 461.336365,242.468124 
	C461.361542,246.794662 461.339996,251.121460 461.339111,256.422699 
z"/>
<path fill="#1e5a7d" opacity="1.000000" stroke="none" 
	d="
M590.617310,164.013092 
	C598.000854,163.476120 604.969421,163.046356 611.940369,162.658020 
	C616.332397,162.413361 617.198364,161.114120 615.621887,156.999390 
	C612.883484,149.851547 600.333740,147.603256 596.073669,154.361130 
	C592.656921,159.781265 588.624634,159.360016 583.905762,159.347656 
	C574.986877,159.324310 574.381348,158.405136 577.620728,149.989197 
	C579.809082,144.303741 584.175903,140.775574 589.540894,138.592316 
	C598.940491,134.767166 608.634888,134.327591 618.302185,137.548340 
	C628.694702,141.010727 633.940430,147.723373 634.218140,158.671967 
	C634.551636,171.813507 634.253906,184.970001 634.380920,198.118561 
	C634.412903,201.432770 633.048706,202.595673 629.910156,202.369797 
	C627.923096,202.226807 625.915100,202.285492 623.920349,202.359924 
	C620.721069,202.479324 617.499695,202.741638 616.432007,198.181427 
	C609.132935,202.286011 601.855835,204.506348 593.742798,203.514038 
	C581.635010,202.033157 575.330444,196.171005 574.229431,184.789383 
	C573.214355,174.295303 578.576172,167.363358 590.617310,164.013092 
M610.496643,187.140808 
	C613.570984,185.085815 615.207520,182.098373 616.179810,178.617767 
	C616.750000,176.576370 616.335876,175.220444 614.029602,175.249969 
	C608.876648,175.315903 603.700195,175.264923 598.582825,175.766861 
	C595.415283,176.077545 592.803711,178.137894 592.582703,181.535858 
	C592.370056,184.804764 594.446167,187.066513 597.400513,188.467514 
	C601.745422,190.527893 605.828186,189.480377 610.496643,187.140808 
z"/>
<path fill="#1e5a7d" opacity="1.000000" stroke="none" 
	d="
M718.679077,153.999924 
	C718.680481,140.837250 718.820435,128.172272 718.607056,115.513245 
	C718.536743,111.342178 720.021851,109.969849 724.087708,110.004448 
	C738.914795,110.130608 753.744873,110.100090 768.571594,109.930801 
	C772.344177,109.887718 773.479248,111.357285 773.394043,114.955902 
	C773.050415,129.470551 775.290833,127.022705 761.378357,127.173843 
	C754.714844,127.246231 748.048950,127.307404 741.386597,127.209419 
	C738.348145,127.164734 737.225891,128.428528 737.320435,131.394318 
	C737.458374,135.721863 737.488464,140.062546 737.311646,144.387283 
	C737.177551,147.665665 738.519104,148.800980 741.723145,148.745621 
	C749.551636,148.610367 757.387390,148.844315 765.213440,148.651215 
	C768.937012,148.559341 770.194031,150.006958 770.146851,153.621750 
	C769.950867,168.636307 771.623596,165.955917 757.813416,166.223801 
	C752.983276,166.317490 748.123535,166.570236 743.325684,166.169983 
	C738.306458,165.751251 737.076355,167.805038 737.257568,172.469955 
	C737.580627,180.788040 737.218628,189.130600 737.401917,197.457214 
	C737.481689,201.078735 736.298401,202.371201 732.556213,202.423660 
	C718.701355,202.617874 718.698242,202.740692 718.687317,188.988983 
	C718.678162,177.492630 718.681946,165.996292 718.679077,153.999924 
z"/>
<path fill="#1e5a7d" opacity="1.000000" stroke="none" 
	d="
M814.030823,195.003052 
	C803.248413,184.027969 801.188965,171.293533 805.596191,157.441391 
	C809.862549,144.031418 820.096252,137.321518 833.484314,135.923752 
	C846.565308,134.558075 857.781860,138.838867 865.496582,150.162781 
	C874.733826,163.721390 872.823242,183.523483 861.275635,194.698395 
	C849.928894,205.678894 830.267517,206.865082 817.072266,197.358658 
	C816.128723,196.678925 815.219116,195.951981 814.030823,195.003052 
M823.418274,162.082520 
	C821.659058,167.305756 821.931091,172.555695 823.477356,177.733246 
	C825.469666,184.404465 830.187744,187.768768 837.164490,187.762054 
	C845.701904,187.753845 850.641907,183.068771 852.443542,173.271439 
	C854.190369,163.772354 849.580627,154.732635 841.668762,152.141800 
	C834.344482,149.743378 827.705566,153.140335 823.418274,162.082520 
z"/>
<path fill="#1e5a7d" opacity="1.000000" stroke="none" 
	d="
M562.036438,191.958038 
	C552.312012,203.723236 536.020386,206.297302 522.098389,201.213257 
	C510.372711,196.931259 502.077087,184.506927 502.183807,170.461365 
	C502.330566,151.141327 512.939026,138.294662 531.839966,135.811218 
	C550.140442,133.406708 565.718201,144.802917 568.932922,162.966904 
	C570.750671,173.237808 569.264893,183.220184 562.036438,191.958038 
M536.412903,187.747330 
	C540.967896,188.012955 544.465027,185.955002 547.239441,182.586258 
	C552.691589,175.966232 552.539612,163.091537 547.023743,156.544693 
	C540.736328,149.082077 529.379272,149.831985 523.882324,157.910690 
	C521.819031,160.942978 520.847046,164.347641 520.641113,167.740494 
	C520.111206,176.470520 523.632874,187.996109 536.412903,187.747330 
z"/>
<path fill="#1e5a7d" opacity="1.000000" stroke="none" 
	d="
M576.056091,312.314941 
	C561.293518,304.675293 554.671143,291.811584 556.761536,275.422333 
	C558.497986,261.808594 567.813232,251.025894 581.686340,248.262970 
	C607.340820,243.153778 622.306519,261.018494 623.564636,279.321106 
	C625.301331,304.586365 600.659973,322.179596 576.056091,312.314941 
M600.164795,267.341370 
	C595.481750,262.716217 589.859802,262.024841 584.084229,264.341675 
	C578.081970,266.749451 575.488647,271.844086 575.286926,278.170197 
	C575.207703,280.655212 575.176453,283.158691 575.380371,285.632538 
	C575.973450,292.826141 581.225952,298.361359 588.281067,299.403473 
	C594.035156,300.253418 601.083252,296.242371 603.274475,290.055847 
	C605.989075,282.391479 605.985962,274.745636 600.164795,267.341370 
z"/>
<path fill="#1e5a7d" opacity="1.000000" stroke="none" 
	d="
M442.427063,182.907562 
	C442.471893,159.719345 442.533752,136.920258 442.548950,114.121117 
	C442.550415,111.938889 443.147247,110.600601 445.615906,110.671120 
	C450.580811,110.812943 455.567108,110.037132 460.435364,110.840065 
	C461.818848,112.805855 461.307831,114.869156 461.311249,116.809746 
	C461.348297,137.786438 461.445770,158.764389 461.236176,179.739090 
	C461.190308,184.327469 462.586029,185.886414 467.207520,185.724503 
	C476.020203,185.415771 484.853271,185.739944 493.674164,185.587601 
	C497.082062,185.528748 498.421082,186.673920 498.339935,190.188660 
	C498.000336,204.899139 500.138092,202.138901 486.804871,202.317001 
	C473.655029,202.492645 460.499481,202.250916 447.350281,202.448578 
	C443.418488,202.507706 441.900726,201.038986 442.061920,197.257050 
	C442.260132,192.606781 442.314606,187.950394 442.427063,182.907562 
z"/>
<path fill="#1e5a7d" opacity="1.000000" stroke="none" 
	d="
M797.348511,195.913757 
	C797.951172,200.811554 796.362549,202.521133 791.611511,202.434494 
	C779.646851,202.216324 779.652344,202.441422 779.645569,190.654449 
	C779.631226,165.531158 779.700012,140.407089 779.494324,115.285316 
	C779.458984,110.979416 780.580200,109.520325 785.048157,109.571892 
	C797.346802,109.713814 797.348633,109.515633 797.348572,121.551956 
	C797.348389,146.176315 797.348755,170.800674 797.348511,195.913757 
z"/>
<path fill="#1e5a7d" opacity="1.000000" stroke="none" 
	d="
M514.115112,251.369843 
	C514.459900,249.625137 515.215210,248.804398 516.564575,248.792480 
	C521.343933,248.750275 526.146179,248.237778 531.118774,249.193054 
	C531.336853,251.810196 531.539978,254.247971 531.796509,257.326904 
	C536.461670,251.365585 541.734985,247.531784 549.176208,247.617340 
	C552.071960,247.650650 553.472351,248.563385 553.368164,251.648209 
	C553.222717,255.953140 553.331482,260.266663 553.331482,264.506317 
	C550.287415,266.076630 547.422485,265.178986 544.669250,265.296814 
	C536.569885,265.643433 532.374146,269.736816 532.335693,277.648224 
	C532.286377,287.805084 532.204834,297.963287 532.327759,308.118622 
	C532.372803,311.839722 531.302063,313.530701 527.201477,313.409637 
	C512.020447,312.961609 514.033630,315.867615 513.994629,300.281799 
	C513.954224,284.131683 514.030579,267.981323 514.115112,251.369843 
z"/>
</svg>